<!DOCTYPE svg PUBLIC "-//W3C//DTD SVG 1.1//EN" "http://www.w3.org/Graphics/SVG/1.1/DTD/svg11.dtd">
<!-- Uploaded to: SVG Repo, www.svgrepo.com, Transformed by: SVG Repo Mixer Tools -->
<svg version="1.1" id="Layer_1" xmlns="http://www.w3.org/2000/svg" xmlns:xlink="http://www.w3.org/1999/xlink" viewBox="0 0 511.986 511.986" xml:space="preserve" width="256px" height="256px" fill="#000000">
<g id="SVGRepo_bgCarrier" stroke-width="0"/>
<g id="SVGRepo_tracerCarrier" stroke-linecap="round" stroke-linejoin="round"/>
<g id="SVGRepo_iconCarrier"> <rect x="223.993" y="0" style="fill:#434A54;" width="21.336" height="25"/> <path style="fill:#328b66;" d="M74.662,469.269H63.998v-10.562c0-5.891-4.772-10.656-10.663-10.656 c-5.898,0-10.672,4.766-10.672,10.656v10.562H31.999c-5.89,0-10.663,4.781-10.663,10.656c0,5.906,4.773,10.671,10.663,10.671h10.664 v10.672c0,5.891,4.773,10.655,10.672,10.655c5.891,0,10.663-4.765,10.663-10.655v-10.672h10.664c5.891,0,10.672-4.765,10.672-10.671 C85.334,474.051,80.553,469.269,74.662,469.269z"/> <circle style="fill:#bcaea9;" cx="234.653" cy="42.663" r="31.999"/> <path style="fill:#dad6cd;" d="M149.332,10.664c0,5.891-4.781,10.672-10.672,10.672c-5.89,0-10.663-4.781-10.663-10.672 S132.77,0,138.66,0C144.551,0,149.332,4.773,149.332,10.664z"/> <path style="fill:#dad6cd;" d="M405.334,32c0,5.89-4.781,10.663-10.688,10.663c-5.875,0-10.656-4.773-10.656-10.663 c0-5.891,4.781-10.664,10.656-10.664C400.553,21.336,405.334,26.109,405.334,32z"/> <path style="fill:#dad6cd;" d="M469.332,95.998c0,5.891-4.781,10.664-10.688,10.664c-5.875,0-10.656-4.773-10.656-10.664 s4.781-10.664,10.656-10.664C464.551,85.334,469.332,90.107,469.332,95.998z"/> <path style="fill:#A0D468;" d="M490.643,394.646c0,5.906-4.766,10.688-10.655,10.688c-5.891,0-10.656-4.781-10.656-10.688 c0-5.875,4.766-10.656,10.656-10.656S490.643,388.771,490.643,394.646z"/> <path style="fill:#dad6cd;" d="M490.643,458.644c0,5.906-4.766,10.688-10.655,10.688c-5.891,0-10.656-4.781-10.656-10.688 c0-5.875,4.766-10.656,10.656-10.656S490.643,452.769,490.643,458.644z"/> <path style="fill:#dad6cd;" d="M426.645,479.988c0,5.891-4.766,10.655-10.656,10.655s-10.655-4.765-10.655-10.655 s4.766-10.656,10.655-10.656C421.88,469.332,426.645,474.097,426.645,479.988z"/> <path style="fill:#A0D468;" d="M21.336,415.989c0,5.891-4.781,10.656-10.672,10.656S0,421.879,0,415.989s4.773-10.655,10.664-10.655 S21.336,410.099,21.336,415.989z"/> <path style="fill:#FFFCF1;" d="M234.658,501.331c-59.827,0-116.075-23.312-158.387-65.624 c-42.304-42.311-65.607-98.559-65.607-158.37c0-59.842,23.304-116.091,65.607-158.402c42.312-42.304,98.56-65.6,158.387-65.6 c59.834,0,116.083,23.296,158.395,65.6c42.311,42.312,65.592,98.561,65.592,158.402c0,59.812-23.281,116.06-65.592,158.37 C350.741,478.019,294.492,501.331,234.658,501.331z"/> <path style="fill:#dad6cd;" d="M234.658,42.663C105.059,42.663,0,147.723,0,277.337c0,129.591,105.06,234.649,234.658,234.649 c129.613,0,234.674-105.059,234.674-234.649C469.332,147.722,364.271,42.663,234.658,42.663z M447.738,266.657h-85.279 c-1.156-33.679-7.812-65.967-19.093-95.997h76.092c4.406,7.602,8.328,15.483,11.78,23.632 C440.972,217.323,446.504,241.619,447.738,266.657z M258.728,77.928c21.124,21.117,38.545,45.077,51.951,71.404h-65.35V65.374 C249.907,69.405,254.384,73.576,258.728,77.928z M223.994,65.366v83.966h-65.357c13.414-26.327,30.835-50.287,51.959-71.404 C214.939,73.576,219.408,69.397,223.994,65.366z M223.994,170.66v95.997h-95.802c1.227-33.187,8.164-65.412,20.671-95.997 L223.994,170.66L223.994,170.66z M223.994,287.993v95.997h-75.131c-12.507-30.577-19.444-62.811-20.671-95.997H223.994z M223.994,405.334v83.935c-4.586-4.03-9.055-8.202-13.398-12.546c-21.124-21.125-38.545-45.077-51.951-71.389H223.994z M245.33,489.268v-83.935h65.35c-13.406,26.312-30.827,50.264-51.951,71.389C254.384,481.066,249.907,485.238,245.33,489.268z M245.33,383.99v-95.997h95.802c-1.234,33.187-8.171,65.42-20.671,95.997H245.33z M245.33,266.657V170.66h75.131 c12.5,30.585,19.437,62.811,20.671,95.997H245.33z M385.506,126.481c7.203,7.188,13.812,14.82,19.859,22.851h-70.967 c-13.906-29.827-32.5-57.014-54.874-80.606c13.03,2.789,25.78,6.796,38.171,12.03C343.085,91.498,365.896,106.881,385.506,126.481z M83.818,126.481c19.593-19.601,42.413-34.983,67.811-45.726c12.383-5.242,25.132-9.241,38.163-12.03 c-22.358,23.593-40.968,50.779-54.873,80.606H63.968C70.006,141.302,76.623,133.669,83.818,126.481z M49.858,170.66h76.1 c-11.281,30.03-17.938,62.318-19.102,95.997H21.594c1.219-25.038,6.757-49.334,16.491-72.365 C41.538,186.143,45.468,178.262,49.858,170.66z M21.594,287.993h85.263c1.164,33.687,7.82,65.967,19.102,95.997h-76.1 c-4.391-7.594-8.32-15.484-11.773-23.624C28.35,337.336,22.812,313.023,21.594,287.993z M83.818,428.177 c-7.195-7.188-13.812-14.827-19.851-22.843h70.959c13.897,29.811,32.507,56.998,54.865,80.592 c-13.031-2.781-25.78-6.781-38.163-12.031C126.231,463.144,103.411,447.769,83.818,428.177z M385.506,428.177 c-19.609,19.593-42.421,34.968-67.811,45.718c-12.391,5.25-25.141,9.25-38.171,12.031c22.374-23.594,40.968-50.781,54.874-80.592 h70.967C399.318,413.349,392.709,420.989,385.506,428.177z M419.458,383.99h-76.092c11.281-30.03,17.937-62.311,19.093-95.997 h85.279c-1.234,25.03-6.766,49.343-16.5,72.373C427.786,368.506,423.848,376.396,419.458,383.99z"/> <path style="fill:#328b66;" d="M53.335,63.999H42.663V53.444c0-5.891-4.773-10.672-10.664-10.672 c-5.89,0-10.663,4.781-10.663,10.672v10.555H10.664C4.773,63.999,0,68.772,0,74.662c0,5.891,4.773,10.672,10.664,10.672h10.672 v10.664c0,5.891,4.773,10.664,10.663,10.664c5.891,0,10.664-4.773,10.664-10.664V85.334h10.672c5.891,0,10.663-4.781,10.663-10.672 C63.998,68.772,59.225,63.999,53.335,63.999z"/> <path style="fill:#5ED4A2;" d="M501.331,191.886h-10.688v-10.554c0-5.891-4.766-10.672-10.655-10.672 c-5.891,0-10.656,4.781-10.656,10.672v10.554h-10.688c-5.875,0-10.656,4.773-10.656,10.664s4.781,10.672,10.656,10.672h10.688 v10.663c0,5.891,4.766,10.664,10.656,10.664s10.655-4.773,10.655-10.664v-10.663h10.688c5.874,0,10.655-4.781,10.655-10.672 S507.205,191.886,501.331,191.886z"/> </g>
</svg>