<svg xmlns="http://www.w3.org/2000/svg" xmlns:xlink="http://www.w3.org/1999/xlink" zoomAndPan="magnify" preserveAspectRatio="xMidYMid meet" version="1.0" viewBox="13.31 145.23 351.73 80.08"><defs><g/><clipPath id="25bc5412d0"><path d="M 231.066406 161.210938 L 284.316406 161.210938 L 284.316406 215.960938 L 231.066406 215.960938 Z M 231.066406 161.210938 " clip-rule="nonzero"/></clipPath></defs><g fill="#389b72" fill-opacity="1"><g transform="translate(11.65602, 206.999986)"><g><path d="M 41.578125 -16.65625 L 14.859375 -16.65625 C 14.859375 -14.070312 15.695312 -12.15625 17.375 -10.90625 C 19.050781 -9.664062 20.875 -9.046875 22.84375 -9.046875 C 24.894531 -9.046875 26.519531 -9.320312 27.71875 -9.875 C 28.914062 -10.425781 30.28125 -11.515625 31.8125 -13.140625 L 41 -8.546875 C 37.175781 -2.128906 30.8125 1.078125 21.90625 1.078125 C 16.351562 1.078125 11.585938 -0.820312 7.609375 -4.625 C 3.640625 -8.4375 1.65625 -13.019531 1.65625 -18.375 C 1.65625 -23.738281 3.640625 -28.335938 7.609375 -32.171875 C 11.585938 -36.003906 16.351562 -37.921875 21.90625 -37.921875 C 27.738281 -37.921875 32.488281 -36.234375 36.15625 -32.859375 C 39.820312 -29.484375 41.65625 -24.660156 41.65625 -18.390625 C 41.65625 -17.523438 41.628906 -16.945312 41.578125 -16.65625 Z M 15.21875 -23.703125 L 29.234375 -23.703125 C 28.941406 -25.617188 28.1875 -27.085938 26.96875 -28.109375 C 25.75 -29.140625 24.179688 -29.65625 22.265625 -29.65625 C 20.160156 -29.65625 18.484375 -29.101562 17.234375 -28 C 15.992188 -26.90625 15.320312 -25.472656 15.21875 -23.703125 Z M 15.21875 -23.703125 "/></g></g></g><g fill="#389b72" fill-opacity="1"><g transform="translate(49.357339, 206.999986)"><g><path d="M 13.640625 -36.84375 L 22.625 -16.796875 L 31.59375 -36.84375 L 46.671875 -36.84375 L 26.921875 0 L 18.3125 0 L -1.4375 -36.84375 Z M 13.640625 -36.84375 "/></g></g></g><g fill="#389b72" fill-opacity="1"><g transform="translate(88.997597, 206.999986)"><g><path d="M 41.578125 -16.65625 L 14.859375 -16.65625 C 14.859375 -14.070312 15.695312 -12.15625 17.375 -10.90625 C 19.050781 -9.664062 20.875 -9.046875 22.84375 -9.046875 C 24.894531 -9.046875 26.519531 -9.320312 27.71875 -9.875 C 28.914062 -10.425781 30.28125 -11.515625 31.8125 -13.140625 L 41 -8.546875 C 37.175781 -2.128906 30.8125 1.078125 21.90625 1.078125 C 16.351562 1.078125 11.585938 -0.820312 7.609375 -4.625 C 3.640625 -8.4375 1.65625 -13.019531 1.65625 -18.375 C 1.65625 -23.738281 3.640625 -28.335938 7.609375 -32.171875 C 11.585938 -36.003906 16.351562 -37.921875 21.90625 -37.921875 C 27.738281 -37.921875 32.488281 -36.234375 36.15625 -32.859375 C 39.820312 -29.484375 41.65625 -24.660156 41.65625 -18.390625 C 41.65625 -17.523438 41.628906 -16.945312 41.578125 -16.65625 Z M 15.21875 -23.703125 L 29.234375 -23.703125 C 28.941406 -25.617188 28.1875 -27.085938 26.96875 -28.109375 C 25.75 -29.140625 24.179688 -29.65625 22.265625 -29.65625 C 20.160156 -29.65625 18.484375 -29.101562 17.234375 -28 C 15.992188 -26.90625 15.320312 -25.472656 15.21875 -23.703125 Z M 15.21875 -23.703125 "/></g></g></g><g fill="#389b72" fill-opacity="1"><g transform="translate(126.698913, 206.999986)"><g><path d="M 4.3125 0 L 4.3125 -36.84375 L 17.015625 -36.84375 L 17.015625 -32.96875 L 17.15625 -32.96875 C 20.46875 -36.269531 23.988281 -37.921875 27.71875 -37.921875 C 29.539062 -37.921875 31.347656 -37.679688 33.140625 -37.203125 C 34.929688 -36.722656 36.65625 -35.976562 38.3125 -34.96875 C 39.96875 -33.96875 41.304688 -32.546875 42.328125 -30.703125 C 43.359375 -28.859375 43.875 -26.710938 43.875 -24.265625 L 43.875 0 L 31.171875 0 L 31.171875 -20.828125 C 31.171875 -22.742188 30.554688 -24.414062 29.328125 -25.84375 C 28.109375 -27.28125 26.519531 -28 24.5625 -28 C 22.644531 -28 20.90625 -27.253906 19.34375 -25.765625 C 17.789062 -24.285156 17.015625 -22.640625 17.015625 -20.828125 L 17.015625 0 Z M 4.3125 0 "/></g></g></g><g fill="#389b72" fill-opacity="1"><g transform="translate(168.565369, 206.999986)"><g><path d="M 6.46875 -36.84375 L 6.46875 -50.5625 L 19.171875 -50.5625 L 19.171875 -36.84375 L 26.921875 -36.84375 L 26.921875 -27.140625 L 19.171875 -27.140625 L 19.171875 -15.4375 C 19.171875 -12.039062 20.128906 -10.34375 22.046875 -10.34375 C 22.523438 -10.34375 23.023438 -10.4375 23.546875 -10.625 C 24.078125 -10.820312 24.488281 -11.015625 24.78125 -11.203125 L 25.203125 -11.484375 L 28.359375 -1.21875 C 25.628906 0.3125 22.519531 1.078125 19.03125 1.078125 C 16.632812 1.078125 14.570312 0.660156 12.84375 -0.171875 C 11.125 -1.015625 9.820312 -2.140625 8.9375 -3.546875 C 8.050781 -4.960938 7.414062 -6.445312 7.03125 -8 C 6.65625 -9.5625 6.46875 -11.226562 6.46875 -13 L 6.46875 -27.140625 L 1.15625 -27.140625 L 1.15625 -36.84375 Z M 6.46875 -36.84375 "/></g></g></g><g fill="#389b72" fill-opacity="1"><g transform="translate(191.32968, 206.999986)"><g><path d="M 4.3125 0 L 4.3125 -36.84375 L 17.015625 -36.84375 L 17.015625 -32.96875 L 17.15625 -32.96875 C 20.46875 -36.269531 23.988281 -37.921875 27.71875 -37.921875 C 29.539062 -37.921875 31.347656 -37.679688 33.140625 -37.203125 C 34.929688 -36.722656 36.65625 -35.976562 38.3125 -34.96875 C 39.96875 -33.96875 41.304688 -32.546875 42.328125 -30.703125 C 43.359375 -28.859375 43.875 -26.710938 43.875 -24.265625 L 43.875 0 L 31.171875 0 L 31.171875 -20.828125 C 31.171875 -22.742188 30.554688 -24.414062 29.328125 -25.84375 C 28.109375 -27.28125 26.519531 -28 24.5625 -28 C 22.644531 -28 20.90625 -27.253906 19.34375 -25.765625 C 17.789062 -24.285156 17.015625 -22.640625 17.015625 -20.828125 L 17.015625 0 Z M 4.3125 0 "/></g></g></g><g fill="#389b72" fill-opacity="1"><g transform="translate(233.196136, 206.999986)"><g><path d="M 7.796875 -4.375 C 3.703125 -8.019531 1.65625 -12.6875 1.65625 -18.375 C 1.65625 -24.070312 3.785156 -28.753906 8.046875 -32.421875 C 12.304688 -36.085938 17.570312 -37.921875 23.84375 -37.921875 C 30.019531 -37.921875 35.222656 -36.078125 39.453125 -32.390625 C 43.691406 -28.703125 45.8125 -24.03125 45.8125 -18.375 C 45.8125 -12.726562 43.738281 -8.070312 39.59375 -4.40625 C 35.457031 -0.75 30.207031 1.078125 23.84375 1.078125 C 17.238281 1.078125 11.890625 -0.738281 7.796875 -4.375 Z M 17.625 -24.625 C 15.976562 -23 15.15625 -20.914062 15.15625 -18.375 C 15.15625 -15.84375 15.941406 -13.773438 17.515625 -12.171875 C 19.097656 -10.566406 21.179688 -9.765625 23.765625 -9.765625 C 26.253906 -9.765625 28.300781 -10.578125 29.90625 -12.203125 C 31.507812 -13.835938 32.3125 -15.898438 32.3125 -18.390625 C 32.3125 -20.921875 31.484375 -23 29.828125 -24.625 C 28.179688 -26.257812 26.160156 -27.078125 23.765625 -27.078125 C 21.328125 -27.078125 19.28125 -26.257812 17.625 -24.625 Z M 17.625 -24.625 "/></g></g></g><g fill="#389b72" fill-opacity="1"><g transform="translate(275.062581, 206.999986)"><g><path d="M 7.796875 -4.375 C 3.703125 -8.019531 1.65625 -12.6875 1.65625 -18.375 C 1.65625 -24.070312 3.785156 -28.753906 8.046875 -32.421875 C 12.304688 -36.085938 17.570312 -37.921875 23.84375 -37.921875 C 30.019531 -37.921875 35.222656 -36.078125 39.453125 -32.390625 C 43.691406 -28.703125 45.8125 -24.03125 45.8125 -18.375 C 45.8125 -12.726562 43.738281 -8.070312 39.59375 -4.40625 C 35.457031 -0.75 30.207031 1.078125 23.84375 1.078125 C 17.238281 1.078125 11.890625 -0.738281 7.796875 -4.375 Z M 17.625 -24.625 C 15.976562 -23 15.15625 -20.914062 15.15625 -18.375 C 15.15625 -15.84375 15.941406 -13.773438 17.515625 -12.171875 C 19.097656 -10.566406 21.179688 -9.765625 23.765625 -9.765625 C 26.253906 -9.765625 28.300781 -10.578125 29.90625 -12.203125 C 31.507812 -13.835938 32.3125 -15.898438 32.3125 -18.390625 C 32.3125 -20.921875 31.484375 -23 29.828125 -24.625 C 28.179688 -26.257812 26.160156 -27.078125 23.765625 -27.078125 C 21.328125 -27.078125 19.28125 -26.257812 17.625 -24.625 Z M 17.625 -24.625 "/></g></g></g><g fill="#389b72" fill-opacity="1"><g transform="translate(316.929026, 206.999986)"><g><path d="M 46.390625 -36.84375 L 28.875 -19.25 L 48.109375 0 L 31.734375 0 L 17.015625 -14.71875 L 17.015625 0 L 4.3125 0 L 4.3125 -61.765625 L 17.015625 -61.765625 L 17.015625 -23.984375 L 29.875 -36.84375 Z M 46.390625 -36.84375 "/></g></g></g><g clip-path="url(#25bc5412d0)"><path fill="#fffeda" d="M 284.589844 188.265625 L 276.695312 188.265625 C 263.183594 185.34375 260.179688 182.328125 257.257812 168.796875 L 257.257812 161.210938 L 256.257812 161.210938 L 256.257812 168.875 C 253.339844 182.339844 250.320312 185.347656 236.835938 188.265625 L 231.074219 188.265625 L 231.074219 189.265625 L 236.835938 189.265625 C 250.320312 192.183594 253.339844 195.191406 256.257812 208.65625 L 256.257812 216.179688 L 257.257812 216.179688 L 257.257812 208.738281 C 260.179688 195.203125 263.183594 192.191406 276.695312 189.265625 L 284.589844 189.265625 Z M 284.589844 188.265625 " fill-opacity="1" fill-rule="nonzero"/></g><g fill="#5ed4a2" fill-opacity="1"><g transform="translate(123.498813, 225.218409)"><g><path d="M 4.09375 -7.0625 C 4.5 -7.0625 4.867188 -7.003906 5.203125 -6.890625 C 5.546875 -6.773438 5.847656 -6.628906 6.109375 -6.453125 C 6.367188 -6.273438 6.570312 -6.082031 6.71875 -5.875 L 6.015625 -5.140625 C 5.753906 -5.390625 5.460938 -5.597656 5.140625 -5.765625 C 4.816406 -5.929688 4.46875 -6.015625 4.09375 -6.015625 C 3.625 -6.015625 3.195312 -5.898438 2.8125 -5.671875 C 2.425781 -5.453125 2.125 -5.15625 1.90625 -4.78125 C 1.6875 -4.40625 1.578125 -3.976562 1.578125 -3.5 C 1.578125 -3.03125 1.691406 -2.597656 1.921875 -2.203125 C 2.160156 -1.816406 2.472656 -1.507812 2.859375 -1.28125 C 3.253906 -1.0625 3.679688 -0.953125 4.140625 -0.953125 C 4.472656 -0.953125 4.785156 -1.015625 5.078125 -1.140625 C 5.367188 -1.273438 5.601562 -1.453125 5.78125 -1.671875 C 5.96875 -1.898438 6.0625 -2.160156 6.0625 -2.453125 C 6.0625 -2.492188 6.0625 -2.515625 6.0625 -2.515625 L 4.078125 -2.515625 L 4.078125 -3.59375 L 7.1875 -3.59375 C 7.195312 -3.488281 7.207031 -3.382812 7.21875 -3.28125 C 7.226562 -3.1875 7.234375 -3.085938 7.234375 -2.984375 C 7.234375 -2.617188 7.175781 -2.257812 7.0625 -1.90625 C 6.957031 -1.550781 6.785156 -1.242188 6.546875 -0.984375 C 6.285156 -0.648438 5.941406 -0.382812 5.515625 -0.1875 C 5.085938 0 4.617188 0.09375 4.109375 0.09375 C 3.597656 0.09375 3.125 0.00390625 2.6875 -0.171875 C 2.25 -0.359375 1.863281 -0.613281 1.53125 -0.9375 C 1.195312 -1.269531 0.9375 -1.648438 0.75 -2.078125 C 0.570312 -2.515625 0.484375 -2.988281 0.484375 -3.5 C 0.484375 -4.007812 0.570312 -4.476562 0.75 -4.90625 C 0.9375 -5.332031 1.191406 -5.707031 1.515625 -6.03125 C 1.847656 -6.351562 2.234375 -6.601562 2.671875 -6.78125 C 3.117188 -6.96875 3.59375 -7.0625 4.09375 -7.0625 Z M 4.09375 -7.0625 "/></g></g></g><g fill="#5ed4a2" fill-opacity="1"><g transform="translate(132.055836, 225.218409)"><g><path d="M 0.984375 -7 L 5.390625 -7 L 5.390625 -5.953125 L 2.0625 -5.953125 L 2.0625 -4.109375 L 4.84375 -4.109375 L 4.84375 -3.0625 L 2.0625 -3.0625 L 2.0625 -1.046875 L 5.390625 -1.046875 L 5.390625 0 L 0.984375 0 Z M 0.984375 -7 "/></g></g></g><g fill="#5ed4a2" fill-opacity="1"><g transform="translate(139.093461, 225.218409)"><g><path d="M 1.234375 -2.109375 C 1.515625 -1.710938 1.800781 -1.40625 2.09375 -1.1875 C 2.394531 -0.976562 2.78125 -0.875 3.25 -0.875 C 3.476562 -0.875 3.691406 -0.910156 3.890625 -0.984375 C 4.097656 -1.054688 4.269531 -1.160156 4.40625 -1.296875 C 4.539062 -1.441406 4.609375 -1.609375 4.609375 -1.796875 C 4.609375 -2.128906 4.46875 -2.390625 4.1875 -2.578125 C 3.90625 -2.765625 3.503906 -2.910156 2.984375 -3.015625 C 2.335938 -3.140625 1.816406 -3.367188 1.421875 -3.703125 C 1.035156 -4.035156 0.84375 -4.515625 0.84375 -5.140625 C 0.84375 -5.535156 0.953125 -5.878906 1.171875 -6.171875 C 1.398438 -6.472656 1.695312 -6.703125 2.0625 -6.859375 C 2.4375 -7.015625 2.835938 -7.09375 3.265625 -7.09375 C 3.816406 -7.09375 4.289062 -6.984375 4.6875 -6.765625 C 5.09375 -6.554688 5.40625 -6.257812 5.625 -5.875 L 4.875 -5.125 C 4.6875 -5.414062 4.457031 -5.65625 4.1875 -5.84375 C 3.914062 -6.03125 3.597656 -6.125 3.234375 -6.125 C 2.867188 -6.125 2.5625 -6.039062 2.3125 -5.875 C 2.0625 -5.707031 1.9375 -5.472656 1.9375 -5.171875 C 1.9375 -4.828125 2.066406 -4.578125 2.328125 -4.421875 C 2.585938 -4.265625 2.9375 -4.140625 3.375 -4.046875 C 3.757812 -3.972656 4.128906 -3.851562 4.484375 -3.6875 C 4.835938 -3.519531 5.125 -3.300781 5.34375 -3.03125 C 5.570312 -2.769531 5.6875 -2.453125 5.6875 -2.078125 C 5.6875 -1.410156 5.457031 -0.878906 5 -0.484375 C 4.550781 -0.0976562 3.929688 0.09375 3.140625 0.09375 C 2.597656 0.09375 2.101562 -0.0078125 1.65625 -0.21875 C 1.21875 -0.4375 0.832031 -0.785156 0.5 -1.265625 Z M 1.234375 -2.109375 "/></g></g></g><g fill="#5ed4a2" fill-opacity="1"><g transform="translate(146.231051, 225.218409)"><g><path d="M 2.3125 0 L 2.3125 -5.953125 L 0.34375 -5.953125 L 0.34375 -7 L 5.40625 -7 L 5.40625 -5.953125 L 3.390625 -5.953125 L 3.390625 0 Z M 2.3125 0 "/></g></g></g><g fill="#5ed4a2" fill-opacity="1"><g transform="translate(152.888824, 225.218409)"><g><path d="M 4.0625 0 L 0.71875 0 L 0.71875 -1 L 1.84375 -1 L 1.84375 -6 L 0.71875 -6 L 0.71875 -7 L 4.0625 -7 L 4.0625 -6 L 2.9375 -6 L 2.9375 -1 L 4.0625 -1 Z M 4.0625 0 "/></g></g></g><g fill="#5ed4a2" fill-opacity="1"><g transform="translate(158.566981, 225.218409)"><g><path d="M 7.34375 -3.5 C 7.34375 -2.988281 7.257812 -2.515625 7.09375 -2.078125 C 6.925781 -1.648438 6.6875 -1.269531 6.375 -0.9375 C 6.0625 -0.613281 5.695312 -0.359375 5.28125 -0.171875 C 4.863281 0.00390625 4.40625 0.09375 3.90625 0.09375 C 3.40625 0.09375 2.945312 0.00390625 2.53125 -0.171875 C 2.113281 -0.359375 1.75 -0.613281 1.4375 -0.9375 C 1.132812 -1.269531 0.898438 -1.648438 0.734375 -2.078125 C 0.566406 -2.515625 0.484375 -2.988281 0.484375 -3.5 C 0.484375 -4.007812 0.566406 -4.476562 0.734375 -4.90625 C 0.898438 -5.34375 1.132812 -5.722656 1.4375 -6.046875 C 1.75 -6.378906 2.113281 -6.632812 2.53125 -6.8125 C 2.945312 -7 3.40625 -7.09375 3.90625 -7.09375 C 4.40625 -7.09375 4.863281 -7 5.28125 -6.8125 C 5.695312 -6.632812 6.0625 -6.378906 6.375 -6.046875 C 6.6875 -5.722656 6.925781 -5.34375 7.09375 -4.90625 C 7.257812 -4.476562 7.34375 -4.007812 7.34375 -3.5 Z M 6.234375 -3.5 C 6.234375 -3.988281 6.132812 -4.421875 5.9375 -4.796875 C 5.738281 -5.179688 5.460938 -5.484375 5.109375 -5.703125 C 4.765625 -5.929688 4.363281 -6.046875 3.90625 -6.046875 C 3.445312 -6.046875 3.039062 -5.929688 2.6875 -5.703125 C 2.34375 -5.484375 2.070312 -5.179688 1.875 -4.796875 C 1.675781 -4.421875 1.578125 -3.988281 1.578125 -3.5 C 1.578125 -3.007812 1.675781 -2.570312 1.875 -2.1875 C 2.070312 -1.8125 2.34375 -1.507812 2.6875 -1.28125 C 3.039062 -1.0625 3.445312 -0.953125 3.90625 -0.953125 C 4.363281 -0.953125 4.765625 -1.0625 5.109375 -1.28125 C 5.460938 -1.507812 5.738281 -1.816406 5.9375 -2.203125 C 6.132812 -2.585938 6.234375 -3.019531 6.234375 -3.5 Z M 3.609375 -7.5 L 3.265625 -8 L 4.6875 -9.25 L 5.34375 -8.4375 Z M 3.609375 -7.5 "/></g></g></g><g fill="#5ed4a2" fill-opacity="1"><g transform="translate(167.283945, 225.218409)"><g><path d="M 5.875 -7 L 6.953125 -7 L 6.953125 0 L 5.953125 0 L 1.890625 -5.34375 C 1.929688 -4.9375 1.96875 -4.53125 2 -4.125 C 2.039062 -3.71875 2.0625 -3.3125 2.0625 -2.90625 L 2.0625 0 L 0.984375 0 L 0.984375 -7 L 1.953125 -7 L 6.015625 -1.546875 C 5.960938 -2.035156 5.925781 -2.5625 5.90625 -3.125 C 5.882812 -3.6875 5.875 -4.210938 5.875 -4.703125 Z M 5.875 -7 "/></g></g></g><g fill="#5ed4a2" fill-opacity="1"><g transform="translate(176.110864, 225.218409)"><g/></g></g><g fill="#5ed4a2" fill-opacity="1"><g transform="translate(179.809801, 225.218409)"><g><path d="M 3.71875 -7 C 4.257812 -7 4.734375 -6.90625 5.140625 -6.71875 C 5.554688 -6.539062 5.898438 -6.289062 6.171875 -5.96875 C 6.441406 -5.644531 6.644531 -5.269531 6.78125 -4.84375 C 6.925781 -4.414062 7 -3.96875 7 -3.5 C 7 -2.863281 6.875 -2.28125 6.625 -1.75 C 6.382812 -1.21875 6.019531 -0.789062 5.53125 -0.46875 C 5.039062 -0.15625 4.4375 0 3.71875 0 L 0.984375 0 L 0.984375 -7 Z M 3.671875 -1.046875 C 4.191406 -1.046875 4.613281 -1.15625 4.9375 -1.375 C 5.269531 -1.59375 5.515625 -1.890625 5.671875 -2.265625 C 5.828125 -2.640625 5.90625 -3.050781 5.90625 -3.5 C 5.90625 -3.9375 5.828125 -4.34375 5.671875 -4.71875 C 5.515625 -5.09375 5.269531 -5.390625 4.9375 -5.609375 C 4.613281 -5.835938 4.191406 -5.953125 3.671875 -5.953125 L 2.0625 -5.953125 L 2.0625 -1.046875 Z M 3.671875 -1.046875 "/></g></g></g><g fill="#5ed4a2" fill-opacity="1"><g transform="translate(188.186898, 225.218409)"><g><path d="M 0.984375 -7 L 5.390625 -7 L 5.390625 -5.953125 L 2.0625 -5.953125 L 2.0625 -4.109375 L 4.84375 -4.109375 L 4.84375 -3.0625 L 2.0625 -3.0625 L 2.0625 -1.046875 L 5.390625 -1.046875 L 5.390625 0 L 0.984375 0 Z M 0.984375 -7 "/></g></g></g><g fill="#5ed4a2" fill-opacity="1"><g transform="translate(195.224522, 225.218409)"><g/></g></g><g fill="#5ed4a2" fill-opacity="1"><g transform="translate(198.923458, 225.218409)"><g><path d="M 0.984375 -7 L 5.390625 -7 L 5.390625 -5.953125 L 2.0625 -5.953125 L 2.0625 -4.109375 L 4.84375 -4.109375 L 4.84375 -3.0625 L 2.0625 -3.0625 L 2.0625 -1.046875 L 5.390625 -1.046875 L 5.390625 0 L 0.984375 0 Z M 0.984375 -7 "/></g></g></g><g fill="#5ed4a2" fill-opacity="1"><g transform="translate(205.961082, 225.218409)"><g><path d="M 6.90625 -7 L 4.09375 0 L 3.046875 0 L 0.234375 -7 L 1.46875 -7 L 3.140625 -2.75 C 3.222656 -2.519531 3.304688 -2.296875 3.390625 -2.078125 C 3.472656 -1.859375 3.550781 -1.632812 3.625 -1.40625 C 3.695312 -1.632812 3.773438 -1.859375 3.859375 -2.078125 C 3.941406 -2.304688 4.019531 -2.53125 4.09375 -2.75 L 5.65625 -7 Z M 6.90625 -7 "/></g></g></g><g fill="#5ed4a2" fill-opacity="1"><g transform="translate(214.008304, 225.218409)"><g><path d="M 0.984375 -7 L 5.390625 -7 L 5.390625 -5.953125 L 2.0625 -5.953125 L 2.0625 -4.109375 L 4.84375 -4.109375 L 4.84375 -3.0625 L 2.0625 -3.0625 L 2.0625 -1.046875 L 5.390625 -1.046875 L 5.390625 0 L 0.984375 0 Z M 0.984375 -7 "/></g></g></g><g fill="#5ed4a2" fill-opacity="1"><g transform="translate(221.045933, 225.218409)"><g><path d="M 5.875 -7 L 6.953125 -7 L 6.953125 0 L 5.953125 0 L 1.890625 -5.34375 C 1.929688 -4.9375 1.96875 -4.53125 2 -4.125 C 2.039062 -3.71875 2.0625 -3.3125 2.0625 -2.90625 L 2.0625 0 L 0.984375 0 L 0.984375 -7 L 1.953125 -7 L 6.015625 -1.546875 C 5.960938 -2.035156 5.925781 -2.5625 5.90625 -3.125 C 5.882812 -3.6875 5.875 -4.210938 5.875 -4.703125 Z M 5.875 -7 "/></g></g></g><g fill="#5ed4a2" fill-opacity="1"><g transform="translate(229.872852, 225.218409)"><g><path d="M 2.3125 0 L 2.3125 -5.953125 L 0.34375 -5.953125 L 0.34375 -7 L 5.40625 -7 L 5.40625 -5.953125 L 3.390625 -5.953125 L 3.390625 0 Z M 2.3125 0 "/></g></g></g><g fill="#5ed4a2" fill-opacity="1"><g transform="translate(236.530624, 225.218409)"><g><path d="M 7.34375 -3.5 C 7.34375 -2.988281 7.257812 -2.515625 7.09375 -2.078125 C 6.925781 -1.648438 6.6875 -1.269531 6.375 -0.9375 C 6.0625 -0.613281 5.695312 -0.359375 5.28125 -0.171875 C 4.863281 0.00390625 4.40625 0.09375 3.90625 0.09375 C 3.40625 0.09375 2.945312 0.00390625 2.53125 -0.171875 C 2.113281 -0.359375 1.75 -0.613281 1.4375 -0.9375 C 1.132812 -1.269531 0.898438 -1.648438 0.734375 -2.078125 C 0.566406 -2.515625 0.484375 -2.988281 0.484375 -3.5 C 0.484375 -4.007812 0.566406 -4.476562 0.734375 -4.90625 C 0.898438 -5.34375 1.132812 -5.722656 1.4375 -6.046875 C 1.75 -6.378906 2.113281 -6.632812 2.53125 -6.8125 C 2.945312 -7 3.40625 -7.09375 3.90625 -7.09375 C 4.40625 -7.09375 4.863281 -7 5.28125 -6.8125 C 5.695312 -6.632812 6.0625 -6.378906 6.375 -6.046875 C 6.6875 -5.722656 6.925781 -5.34375 7.09375 -4.90625 C 7.257812 -4.476562 7.34375 -4.007812 7.34375 -3.5 Z M 6.234375 -3.5 C 6.234375 -3.988281 6.132812 -4.421875 5.9375 -4.796875 C 5.738281 -5.179688 5.460938 -5.484375 5.109375 -5.703125 C 4.765625 -5.929688 4.363281 -6.046875 3.90625 -6.046875 C 3.445312 -6.046875 3.039062 -5.929688 2.6875 -5.703125 C 2.34375 -5.484375 2.070312 -5.179688 1.875 -4.796875 C 1.675781 -4.421875 1.578125 -3.988281 1.578125 -3.5 C 1.578125 -3.007812 1.675781 -2.570312 1.875 -2.1875 C 2.070312 -1.8125 2.34375 -1.507812 2.6875 -1.28125 C 3.039062 -1.0625 3.445312 -0.953125 3.90625 -0.953125 C 4.363281 -0.953125 4.765625 -1.0625 5.109375 -1.28125 C 5.460938 -1.507812 5.738281 -1.816406 5.9375 -2.203125 C 6.132812 -2.585938 6.234375 -3.019531 6.234375 -3.5 Z M 6.234375 -3.5 "/></g></g></g><g fill="#5ed4a2" fill-opacity="1"><g transform="translate(245.247588, 225.218409)"><g><path d="M 1.234375 -2.109375 C 1.515625 -1.710938 1.800781 -1.40625 2.09375 -1.1875 C 2.394531 -0.976562 2.78125 -0.875 3.25 -0.875 C 3.476562 -0.875 3.691406 -0.910156 3.890625 -0.984375 C 4.097656 -1.054688 4.269531 -1.160156 4.40625 -1.296875 C 4.539062 -1.441406 4.609375 -1.609375 4.609375 -1.796875 C 4.609375 -2.128906 4.46875 -2.390625 4.1875 -2.578125 C 3.90625 -2.765625 3.503906 -2.910156 2.984375 -3.015625 C 2.335938 -3.140625 1.816406 -3.367188 1.421875 -3.703125 C 1.035156 -4.035156 0.84375 -4.515625 0.84375 -5.140625 C 0.84375 -5.535156 0.953125 -5.878906 1.171875 -6.171875 C 1.398438 -6.472656 1.695312 -6.703125 2.0625 -6.859375 C 2.4375 -7.015625 2.835938 -7.09375 3.265625 -7.09375 C 3.816406 -7.09375 4.289062 -6.984375 4.6875 -6.765625 C 5.09375 -6.554688 5.40625 -6.257812 5.625 -5.875 L 4.875 -5.125 C 4.6875 -5.414062 4.457031 -5.65625 4.1875 -5.84375 C 3.914062 -6.03125 3.597656 -6.125 3.234375 -6.125 C 2.867188 -6.125 2.5625 -6.039062 2.3125 -5.875 C 2.0625 -5.707031 1.9375 -5.472656 1.9375 -5.171875 C 1.9375 -4.828125 2.066406 -4.578125 2.328125 -4.421875 C 2.585938 -4.265625 2.9375 -4.140625 3.375 -4.046875 C 3.757812 -3.972656 4.128906 -3.851562 4.484375 -3.6875 C 4.835938 -3.519531 5.125 -3.300781 5.34375 -3.03125 C 5.570312 -2.769531 5.6875 -2.453125 5.6875 -2.078125 C 5.6875 -1.410156 5.457031 -0.878906 5 -0.484375 C 4.550781 -0.0976562 3.929688 0.09375 3.140625 0.09375 C 2.597656 0.09375 2.101562 -0.0078125 1.65625 -0.21875 C 1.21875 -0.4375 0.832031 -0.785156 0.5 -1.265625 Z M 1.234375 -2.109375 "/></g></g></g></svg>